<svg width="143" height="40" viewBox="0 0 143 40" fill="none" xmlns="http://www.w3.org/2000/svg">
<path d="M11.2593 27.8069C11.8534 28.2271 12.535 28.4268 13.244 28.4249C14.1002 28.4227 14.9207 28.1297 15.6428 27.7417C17.0797 26.9698 18.5182 25.6089 19.7638 24.1337C21.0277 22.6369 22.1845 20.9131 23.0328 19.3C23.8448 17.756 24.5 16.0808 24.5 14.7487C24.5 13.9019 24.1966 13.129 23.5675 12.5574C22.9913 12.0339 22.27 11.7962 21.6255 11.6828C20.3551 11.4591 18.7639 11.6182 17.2704 11.8551C16.0803 12.0439 14.8145 12.3075 13.648 12.5504C13.318 12.6191 12.996 12.6861 12.686 12.7494C11.207 13.051 10.0712 13.2487 9.37168 13.2487C8.64357 13.2487 7.92243 13.132 7.18512 12.9849C7.04906 12.9577 6.90598 12.9279 6.75854 12.8972C6.18149 12.777 5.53754 12.6429 4.98541 12.5989C4.2893 12.5434 3.24942 12.5781 2.44647 13.3714C1.68189 14.1268 1.5 15.2154 1.5 16.2638C1.5 17.5261 1.93553 18.864 2.54267 20.0922C3.16025 21.3416 4.01058 22.5888 4.96869 23.6971C5.92517 24.8036 7.02329 25.8111 8.15783 26.5538C9.09794 27.1692 10.1654 27.6696 11.2593 27.8069Z" stroke="black" stroke-width="3"/>
<path d="M52.836 29.548L54.024 29.26C54.408 29.26 54.6 29.452 54.6 29.836C54.576 30.46 54.252 31.012 53.628 31.492C53.028 31.996 52.344 32.248 51.576 32.248C50.808 32.248 50.196 31.876 49.74 31.132C49.092 30.052 48.48 28.12 47.904 25.336C47.64 23.992 47.328 22.888 46.968 22.024C46.32 22.24 45.636 22.348 44.916 22.348C44.196 22.348 43.56 22.204 43.008 21.916C42.48 21.604 42.216 21.232 42.216 20.8C42.264 19.696 43.152 19.144 44.88 19.144C45.72 19.144 46.62 19.516 47.58 20.26C49.068 19.132 49.812 17.56 49.812 15.544C49.812 14.344 49.584 13.288 49.128 12.376C48.672 11.44 48.072 10.708 47.328 10.18C45.864 9.148 44.232 8.632 42.432 8.632C42.384 9.16 42.3 10 42.18 11.152C41.94 13.552 41.796 15.412 41.748 16.732L41.64 22.42C41.64 26.788 40.776 28.972 39.048 28.972C37.944 28.972 37.392 28.504 37.392 27.568C37.392 27.328 37.548 26.92 37.86 26.344C38.196 25.768 38.436 25.108 38.58 24.364C38.724 23.596 38.88 21.376 39.048 17.704C39.216 14.008 39.444 11.104 39.732 8.992C38.46 9.352 37.416 9.904 36.6 10.648C35.808 11.392 35.412 12.268 35.412 13.276C35.412 13.852 35.28 14.32 35.016 14.68C34.752 15.016 34.428 15.184 34.044 15.184C33.348 15.184 33 14.812 33 14.068C33 12.388 33.672 11.008 35.016 9.928C36.384 8.824 38.064 8.032 40.056 7.552C40.536 5.944 41.208 5.14 42.072 5.14C42.408 5.14 42.576 5.524 42.576 6.292C42.576 6.46 42.552 6.76 42.504 7.192C42.768 7.144 43.272 7.12 44.016 7.12C44.76 7.12 45.6 7.228 46.536 7.444C47.472 7.66 48.408 8.032 49.344 8.56C50.304 9.064 51.072 9.844 51.648 10.9C52.224 11.932 52.512 13.144 52.512 14.536C52.512 15.928 52.152 17.224 51.432 18.424C50.712 19.624 49.776 20.584 48.624 21.304C49.44 22.312 50.076 23.548 50.532 25.012C51.012 26.476 51.456 27.592 51.864 28.36C52.272 29.152 52.596 29.548 52.836 29.548ZM43.692 20.368C43.692 20.56 43.86 20.728 44.196 20.872C44.532 21.016 44.88 21.088 45.24 21.088C45.624 21.088 45.972 21.028 46.284 20.908C45.804 20.356 45.252 20.08 44.628 20.08C44.004 20.08 43.692 20.176 43.692 20.368ZM60.9354 28.18C59.5914 28.18 58.5234 27.676 57.7314 26.668C56.9394 25.636 56.5434 24.472 56.5434 23.176C56.5434 20.56 57.0954 18.58 58.1994 17.236C59.3034 15.892 60.7314 15.22 62.4834 15.22C63.2994 15.22 63.9714 15.448 64.4994 15.904C65.0274 16.336 65.2914 16.936 65.2914 17.704C65.2914 19.144 64.6794 20.356 63.4554 21.34C62.2554 22.3 60.7794 22.804 59.0274 22.852C59.1234 23.788 59.4354 24.604 59.9634 25.3C60.5154 25.972 61.1514 26.308 61.8714 26.308C62.5914 26.308 63.2394 26.14 63.8154 25.804C64.3914 25.468 64.9194 24.988 65.3994 24.364C66.4074 23.044 67.2714 21.544 67.9914 19.864C68.1834 19.432 68.3274 19.12 68.4234 18.928C68.5434 18.736 68.6634 18.64 68.7834 18.64C68.9274 18.64 68.9994 18.736 68.9994 18.928C68.9994 20.128 68.2674 21.928 66.8034 24.328C65.2194 26.896 63.2634 28.18 60.9354 28.18ZM59.0274 21.988C60.4434 21.748 61.4754 21.292 62.1234 20.62C62.7954 19.948 63.1314 19.072 63.1314 17.992C63.1314 16.912 62.7834 16.372 62.0874 16.372C61.2474 16.372 60.5394 16.96 59.9634 18.136C59.3874 19.288 59.0754 20.572 59.0274 21.988ZM76.0543 19.252L76.3423 17.416C76.3423 17.152 76.2583 16.912 76.0903 16.696C75.9223 16.48 75.7063 16.372 75.4423 16.372C74.5543 16.372 73.7863 17.044 73.1383 18.388C72.4903 19.708 72.1663 20.98 72.1663 22.204C72.1663 23.428 72.4183 24.424 72.9223 25.192C73.4263 25.936 74.0383 26.308 74.7583 26.308C75.5023 26.308 76.1623 26.14 76.7383 25.804C77.3143 25.468 77.8423 24.988 78.3223 24.364C79.3303 23.044 80.1943 21.544 80.9143 19.864C81.1063 19.432 81.2503 19.12 81.3463 18.928C81.4663 18.736 81.5863 18.64 81.7063 18.64C81.8503 18.64 81.9223 18.736 81.9223 18.928C81.9223 19.72 81.6463 20.668 81.0943 21.772C80.5423 22.876 80.0743 23.728 79.6903 24.328C79.3303 24.904 78.8623 25.516 78.2863 26.164C77.0863 27.508 75.5863 28.18 73.7863 28.18C72.4183 28.18 71.3743 27.7 70.6543 26.74C69.9583 25.756 69.6103 24.712 69.6103 23.608C69.6103 20.872 70.1983 18.796 71.3743 17.38C72.5743 15.94 74.0863 15.22 75.9103 15.22C76.6783 15.22 77.2783 15.424 77.7103 15.832C78.1663 16.216 78.3943 16.66 78.3943 17.164C78.3943 18.1 78.2263 18.796 77.8903 19.252C77.5543 19.708 77.1463 19.936 76.6663 19.936C76.2583 19.936 76.0543 19.708 76.0543 19.252ZM83.7631 10.396C83.7631 9.964 83.9911 9.592 84.4471 9.28C84.9031 8.968 85.3111 8.812 85.6711 8.812C86.3191 8.812 86.6431 9.184 86.6431 9.928C86.6431 10.672 86.4511 11.32 86.0671 11.872C85.6831 12.4 85.1431 12.664 84.4471 12.664C83.9911 12.664 83.7631 11.908 83.7631 10.396ZM84.8071 28.18C83.8711 28.18 83.1631 27.988 82.6831 27.604C82.5151 27.436 82.4311 26.836 82.4311 25.804C82.4311 24.772 82.5031 23.056 82.6471 20.656C82.8151 18.232 82.9591 16.924 83.0791 16.732C83.1991 16.54 83.5711 16.18 84.1951 15.652C84.8191 15.124 85.2991 14.86 85.6351 14.86C85.9951 14.86 86.1751 15.316 86.1751 16.228C86.1751 16.468 86.1031 16.936 85.9591 17.632C85.8391 18.328 85.6951 18.832 85.5271 19.144C85.2151 19.936 85.0591 22.012 85.0591 25.372C85.0591 26.02 85.1311 26.344 85.2751 26.344C85.6831 26.32 86.2471 25.816 86.9671 24.832C87.6871 23.824 88.3951 22.54 89.0911 20.98C89.8111 19.42 90.2431 18.64 90.3871 18.64C90.5551 18.64 90.6391 18.736 90.6391 18.928C90.6391 19.6 90.2911 20.668 89.5951 22.132C87.6991 26.164 86.1031 28.18 84.8071 28.18ZM92.3601 16.804C92.6241 16.492 93.0441 16.096 93.6201 15.616C94.1961 15.112 94.6521 14.86 94.9881 14.86C95.3241 14.86 95.4921 15.34 95.4921 16.3C95.4921 17.236 95.2401 18.16 94.7361 19.072C94.6401 19.504 94.5681 20.128 94.5201 20.944C95.2161 19.048 95.9121 17.62 96.6081 16.66C97.3041 15.7 98.1441 15.22 99.1281 15.22C100.136 15.22 101.012 15.676 101.756 16.588C102.5 17.476 102.872 18.892 102.872 20.836C102.872 22.756 102.32 24.46 101.216 25.948C100.136 27.436 98.7081 28.18 96.9321 28.18C96.0201 28.18 95.0961 27.844 94.1601 27.172C94.1601 31.756 93.8961 35.248 93.3681 37.648C93.3201 37.864 92.9961 38.224 92.3961 38.728C91.8201 39.256 91.4001 39.52 91.1361 39.52C90.8481 39.52 90.6441 39.328 90.5241 38.944C90.4041 38.56 90.3441 38.2 90.3441 37.864C90.3441 35.392 90.8481 32.212 91.8561 28.324C92.0241 26.068 92.1321 23.596 92.1801 20.908C92.2521 18.22 92.3121 16.852 92.3601 16.804ZM97.1481 26.884C97.8441 26.884 98.5641 26.404 99.3081 25.444C100.052 24.46 100.424 23.26 100.424 21.844C100.424 20.404 100.22 19.264 99.8121 18.424C99.4281 17.56 98.9001 17.128 98.2281 17.128C97.0761 17.128 95.7681 19.516 94.3041 24.292C94.2561 24.964 94.2321 25.492 94.2321 25.876C94.9041 26.548 95.8761 26.884 97.1481 26.884ZM111.129 28.18C109.785 28.18 108.717 27.676 107.925 26.668C107.133 25.636 106.737 24.472 106.737 23.176C106.737 20.56 107.289 18.58 108.393 17.236C109.497 15.892 110.925 15.22 112.677 15.22C113.493 15.22 114.165 15.448 114.693 15.904C115.221 16.336 115.485 16.936 115.485 17.704C115.485 19.144 114.873 20.356 113.649 21.34C112.449 22.3 110.973 22.804 109.221 22.852C109.317 23.788 109.629 24.604 110.157 25.3C110.709 25.972 111.345 26.308 112.065 26.308C112.785 26.308 113.433 26.14 114.009 25.804C114.585 25.468 115.113 24.988 115.593 24.364C116.601 23.044 117.465 21.544 118.185 19.864C118.377 19.432 118.521 19.12 118.617 18.928C118.737 18.736 118.857 18.64 118.977 18.64C119.121 18.64 119.193 18.736 119.193 18.928C119.193 20.128 118.461 21.928 116.997 24.328C115.413 26.896 113.457 28.18 111.129 28.18ZM109.221 21.988C110.637 21.748 111.669 21.292 112.317 20.62C112.989 19.948 113.325 19.072 113.325 17.992C113.325 16.912 112.977 16.372 112.281 16.372C111.441 16.372 110.733 16.96 110.157 18.136C109.581 19.288 109.269 20.572 109.221 21.988ZM122.432 28.18C121.904 28.18 121.412 28.12 120.956 28C120.524 27.856 120.26 27.724 120.164 27.604C119.924 27.316 119.804 25.828 119.804 23.14C119.804 20.428 120.104 16.756 120.704 12.124C121.208 8.308 122.384 6.4 124.232 6.4C124.664 6.4 124.976 6.64 125.168 7.12C125.36 7.576 125.456 8.02 125.456 8.452C125.456 11.572 124.508 15.064 122.612 18.928C122.54 20.92 122.504 22.66 122.504 24.148C122.504 25.612 122.636 26.344 122.9 26.344C123.308 26.32 123.872 25.816 124.592 24.832C125.312 23.824 126.02 22.54 126.716 20.98C127.436 19.42 127.868 18.64 128.012 18.64C128.18 18.64 128.264 18.736 128.264 18.928C128.264 19.6 127.916 20.668 127.22 22.132C125.324 26.164 123.728 28.18 122.432 28.18ZM124.556 8.776C124.556 8.008 124.46 7.624 124.268 7.624C123.548 7.624 123.02 10.612 122.684 16.588C123.932 13.3 124.556 10.696 124.556 8.776ZM128.617 24.868L128.833 20.836C128.833 18.268 128.953 16.864 129.193 16.624C129.433 16.384 129.853 16.036 130.453 15.58C131.077 15.1 131.521 14.86 131.785 14.86C132.073 14.86 132.253 14.908 132.325 15.004C132.397 15.1 132.433 15.292 132.433 15.58C132.433 16.612 132.205 17.656 131.749 18.712C131.389 20.92 131.209 22.732 131.209 24.148C131.209 25.564 131.377 26.272 131.713 26.272C132.289 26.272 132.949 25.768 133.693 24.76C134.461 23.728 135.241 22.216 136.033 20.224C136.057 19.696 136.081 19.144 136.105 18.568C136.129 17.968 136.153 17.536 136.177 17.272C136.201 16.984 136.213 16.78 136.213 16.66C136.237 16.54 136.573 16.216 137.221 15.688C137.869 15.136 138.361 14.86 138.697 14.86C139.057 14.86 139.237 15.316 139.237 16.228C139.237 16.468 139.165 16.936 139.021 17.632C138.901 18.328 138.757 18.832 138.589 19.144C138.397 20.848 138.265 22.336 138.193 23.608C140.545 20.632 141.793 19.06 141.937 18.892C142.105 18.724 142.249 18.64 142.369 18.64C142.609 18.64 142.729 18.76 142.729 19C142.729 19.144 142.681 19.3 142.585 19.468C141.817 20.596 140.305 22.576 138.049 25.408C137.905 28.264 137.809 30.208 137.761 31.24C137.641 34.288 137.209 36.424 136.465 37.648C135.745 38.896 134.449 39.52 132.577 39.52C131.761 39.52 130.993 39.268 130.273 38.764C129.577 38.284 129.229 37.432 129.229 36.208C129.229 35.008 129.685 33.772 130.597 32.5C131.533 31.228 133.225 29.272 135.673 26.632L135.889 22.708C135.073 24.508 134.269 25.876 133.477 26.812C132.685 27.724 131.809 28.18 130.849 28.18C129.889 28.18 129.277 27.94 129.013 27.46C128.749 26.98 128.617 26.116 128.617 24.868ZM135.565 28.324C132.829 31.276 131.461 33.64 131.461 35.416C131.461 36.232 131.605 36.904 131.893 37.432C132.181 37.96 132.577 38.224 133.081 38.224C133.849 38.224 134.389 37.804 134.701 36.964C135.013 36.124 135.241 34.42 135.385 31.852L135.565 28.324Z" fill="black"/>
</svg>
